<?xml version="1.0" encoding="UTF-8"?>
<!DOCTYPE svg PUBLIC "-//W3C//DTD SVG 1.0//EN" "http://www.w3.org/TR/2001/REC-SVG-20010904/DTD/svg10.dtd">
<!-- Creator: CorelDRAW X7 -->
<svg xmlns="http://www.w3.org/2000/svg" xml:space="preserve" width="80px" height="90px" version="1.0" style="shape-rendering:geometricPrecision; text-rendering:geometricPrecision; image-rendering:optimizeQuality; fill-rule:evenodd; clip-rule:evenodd"
viewBox="0 0 80 90"
 xmlns:xlink="http://www.w3.org/1999/xlink">
 <defs>
  <style type="text/css">
   <![CDATA[
    .fil0 {fill:#8ACF17}
    .fil2 {fill:white}
    .fil1 {fill:white;fill-rule:nonzero}
   ]]>
  </style>
 </defs>
 <g id="Warstwa_x0020_1">
  <metadata id="CorelCorpID_0Corel-Layer"/>
  <g id="_297005440">
   <path class="fil0" d="M40 0l20 11 20 12 0 22 0 23 -20 11 -20 11 -20 -11 -20 -11 0 -23 0 -22 20 -12 20 -11z"/>
   <path class="fil1" d="M27 36l2 0 0 -1 3 0 0 1 2 0 -2 -8 -3 0 -2 8zm3 -7l1 0 1 4 -3 0 1 -4zm7 -1l-2 0 0 7c0,0 0,1 -1,1l0 1c2,0 3,0 3,-2l0 -7zm1 8l2 0 0 -1 3 0 1 1 1 0 -1 -8 -4 0 -2 8zm4 -7l0 0 1 4 -2 0 1 -4zm6 -1l-2 0 2 4 -2 4 2 0 1 -3 2 3 2 0 -3 -4 3 -4 -2 0 -2 3 -1 -3z"/>
   <path class="fil2" d="M40 52c-1,0 -1,0 -1,1 0,1 0,1 1,1 1,1 2,-1 3,-1 0,1 0,9 0,10 -1,2 -4,2 -6,1 0,-1 0,-1 0,-2l-2 0c-1,3 2,5 5,5 3,0 5,-2 5,-4 0,-4 0,-7 0,-10 1,0 3,2 4,1 1,-1 -1,-2 -2,-3 -1,-1 -1,-1 -2,-1 -1,-1 -1,-1 -2,-1 -1,1 -2,2 -3,3z"/>
   <path class="fil2" d="M39 45c1,0 2,0 3,1 1,0 1,1 1,2l2 0c0,-4 -2,-5 -6,-5 -6,1 -4,6 -5,14l-2 -1c-1,-1 -2,1 -1,2 0,0 4,3 5,3 0,0 1,-1 1,-1l3 -2c1,-1 0,-4 -2,-2 0,0 0,1 -1,1l0 0c0,-1 0,-6 0,-7 0,-2 -1,-5 2,-5z"/>
  </g>
 </g>
</svg>
