<?xml version="1.0" encoding="UTF-8"?>
<!DOCTYPE svg PUBLIC "-//W3C//DTD SVG 1.0//EN" "http://www.w3.org/TR/2001/REC-SVG-20010904/DTD/svg10.dtd">
<!-- Creator: CorelDRAW X7 -->
<svg xmlns="http://www.w3.org/2000/svg" xml:space="preserve" width="80px" height="90px" version="1.0" style="shape-rendering:geometricPrecision; text-rendering:geometricPrecision; image-rendering:optimizeQuality; fill-rule:evenodd; clip-rule:evenodd"
viewBox="0 0 80 90"
 xmlns:xlink="http://www.w3.org/1999/xlink">
 <defs>
  <style type="text/css">
   <![CDATA[
    .str0 {stroke:#8ACF17;stroke-width:1.18113}
    .fil0 {fill:none}
    .fil2 {fill:#8ACF17}
    .fil3 {fill:white}
    .fil1 {fill:#8ACF17;fill-rule:nonzero}
   ]]>
  </style>
 </defs>
 <g id="Warstwa_x0020_1">
  <metadata id="CorelCorpID_0Corel-Layer"/>
  <g id="_292093608">
   <path class="fil0 str0" d="M40 0l20 11 20 12 0 22 0 23 -20 11 -20 11 -20 -11 -20 -11 0 -23 0 -22 20 -12 20 -11z"/>
   <path class="fil1" d="M7 26l0 9 3 0c2,0 3,-1 3,-3 0,-1 0,-1 -1,-2 1,0 1,0 1,-1 0,-2 -1,-3 -3,-3l-3 0zm3 5c1,0 1,1 1,1 0,1 0,1 -1,1l-1 0 0 -2 1 0zm0 -3c1,0 1,0 1,1 0,0 0,1 -1,1l-1 0 0 -2 1 0zm8 6c-2,0 -2,-1 -2,-3 0,-2 0,-3 2,-3 1,0 2,1 2,3 0,2 -1,3 -2,3zm0 1c3,0 3,-1 3,-4 0,-3 0,-5 -3,-5 -3,0 -4,2 -4,5 0,3 1,4 4,4zm8 -1c-1,0 -2,-1 -2,-3 0,-2 1,-3 2,-3 2,0 2,1 2,3 0,2 0,3 -2,3zm0 1c3,0 4,-1 4,-4 0,-3 -1,-5 -4,-5 -3,0 -3,2 -3,5 0,3 0,4 3,4zm4 -7l3 0 0 7 1 0 0 -7 3 0 0 -2 -7 0 0 2zm13 -2c0,0 -2,0 -3,0 -1,0 -3,1 -3,3 0,1 1,2 3,2 1,1 2,1 2,1 0,1 -1,2 -2,2 -1,0 -2,-1 -2,-1l-1 2c0,0 2,0 3,0 2,0 3,-1 3,-3 0,-1 0,-2 -2,-2 -2,-1 -2,-1 -2,-1 0,-1 1,-1 1,-1 1,0 3,0 3,0l0 -2zm1 2l2 0 0 7 2 0 0 -7 2 0 0 -2 -6 0 0 2zm11 4l1 3 2 0 -1 -3c0,-1 1,-2 1,-3 0,-2 -1,-3 -3,-3l-4 0 0 9 2 0 0 -3 2 0zm1 -3c0,1 0,2 -1,2l-2 0 0 -3 2 0c1,0 1,0 1,1zm2 6l2 0 1 -2 3 0 0 2 2 0 -2 -9 -4 0 -2 9zm4 -7l0 0 1 4 -2 0 1 -4zm8 4c2,0 3,-1 3,-3 0,-2 -1,-3 -3,-3l-3 0 0 9 2 0 0 -3 1 0zm-1 -1l0 -3 1 0c1,0 1,0 1,1 0,1 0,2 -1,2l-1 0z"/>
   <path class="fil2" d="M28 66c0,1 2,3 4,3l17 0c2,0 3,-2 3,-3l0 -18c0,-2 -1,-3 -3,-3l-17 0c-2,0 -4,1 -4,3l0 18 0 0z"/>
   <path class="fil3" d="M38 55l0 -3 3 0c1,0 1,0 1,0 0,0 1,0 1,0 0,0 0,1 0,1 1,0 1,0 1,1 0,0 -1,1 -1,1 0,0 -1,0 -1,0l-4 0zm-3 -6l0 15 7 0c1,0 2,0 2,0 1,0 1,-1 2,-1 0,0 1,-1 1,-1 0,-1 0,-2 0,-2 0,-1 0,-2 0,-3 -1,0 -1,-1 -2,-1 0,0 1,-1 1,-1 0,-1 1,-1 1,-2 0,-1 0,-1 -1,-2 0,0 0,-1 -1,-1 0,0 -1,0 -1,0 -1,-1 -1,-1 -2,-1l-7 0zm3 12l0 -4 4 0c1,0 1,1 2,1 0,0 0,1 0,2 0,0 0,0 0,1 0,0 0,0 -1,0 0,0 0,0 0,0 -1,0 -1,0 -1,0l-4 0z"/>
  </g>
 </g>
</svg>
