<?xml version="1.0" encoding="UTF-8"?>
<!DOCTYPE svg PUBLIC "-//W3C//DTD SVG 1.0//EN" "http://www.w3.org/TR/2001/REC-SVG-20010904/DTD/svg10.dtd">
<!-- Creator: CorelDRAW X7 -->
<svg xmlns="http://www.w3.org/2000/svg" xml:space="preserve" width="80px" height="90px" version="1.0" style="shape-rendering:geometricPrecision; text-rendering:geometricPrecision; image-rendering:optimizeQuality; fill-rule:evenodd; clip-rule:evenodd"
viewBox="0 0 80 90"
 xmlns:xlink="http://www.w3.org/1999/xlink">
 <defs>
  <style type="text/css">
   <![CDATA[
    .str0 {stroke:#8ACF17;stroke-width:1.18113}
    .fil0 {fill:none}
    .fil2 {fill:#8ACF17}
    .fil3 {fill:white}
    .fil1 {fill:#8ACF17;fill-rule:nonzero}
   ]]>
  </style>
 </defs>
 <g id="Warstwa_x0020_1">
  <metadata id="CorelCorpID_0Corel-Layer"/>
  <g id="_292080984">
   <path class="fil0 str0" d="M40 0l20 11 20 12 0 22 0 23 -20 11 -20 11 -20 -11 -20 -11 0 -23 0 -22 20 -12 20 -11z"/>
   <path class="fil1" d="M33 33c-1,0 -2,1 -3,1 -1,0 -1,-1 -1,-3 0,-3 0,-3 1,-3 1,0 2,0 3,0l0 -2c-1,0 -2,0 -3,0 -2,0 -3,1 -3,5 0,3 0,4 3,4 1,0 2,0 3,0l0 -2zm6 -7c0,0 -1,0 -3,0 -1,0 -2,1 -2,3 0,1 0,2 2,2 1,1 2,1 2,1 0,1 -1,2 -2,2 0,0 -2,-1 -2,-1l0 2c0,0 1,0 3,0 1,0 3,-1 3,-3 0,-1 -1,-2 -3,-2 -1,-1 -2,-1 -2,-1 0,-1 1,-1 2,-1 0,0 2,0 2,0l0 -2zm7 0c0,0 -1,0 -3,0 -1,0 -3,1 -3,3 0,1 1,2 3,2 1,1 2,1 2,1 0,1 -1,2 -2,2 -1,0 -2,-1 -2,-1l0 2c0,0 1,0 2,0 2,0 3,-1 3,-3 0,-1 0,-2 -2,-2 -1,-1 -2,-1 -2,-1 0,-1 1,-1 2,-1 0,0 2,0 2,0l0 -2zm2 2c0,0 1,0 2,0 1,0 1,0 1,1 0,0 0,1 -1,1l-1 0 0 1 1 0c1,0 1,1 1,1 0,1 0,2 -1,2 -1,0 -2,-1 -2,-1l0 2c0,0 1,0 2,0 2,0 3,-1 3,-3 0,-1 0,-1 -1,-1 1,-1 1,-1 1,-2 0,-2 -1,-3 -3,-3 -1,0 -2,1 -2,1l0 1z"/>
   <path id="polygon2989" class="fil2" d="M40 69l-9 -3 -2 -21 21 0 -2 21 -8 3z"/>
   <path id="polygon2991" class="fil3" d="M47 65l1 -19 -8 0 0 21 7 -2z"/>
   <path id="polygon2993" class="fil3" d="M34 54l0 3 6 0 0 -3 -6 0z"/>
   <path id="polygon2995" class="fil3" d="M33 49l0 3 7 0 0 -3 0 0 -7 0z"/>
   <path id="polygon2997" class="fil3" d="M40 61l0 0 -3 -1 0 -2 -2 0 -1 0 0 4 6 2 0 0 0 -3z"/>
   <path id="polygon3005" class="fil2" d="M46 54l0 -5 -6 0 0 3 4 0 -1 2 -3 0 0 3 3 0 0 3 -3 1 0 3 5 -2 0 0 1 -7 0 -1z"/>
  </g>
 </g>
</svg>
