<?xml version="1.0" encoding="UTF-8"?>
<!DOCTYPE svg PUBLIC "-//W3C//DTD SVG 1.0//EN" "http://www.w3.org/TR/2001/REC-SVG-20010904/DTD/svg10.dtd">
<!-- Creator: CorelDRAW X7 -->
<svg xmlns="http://www.w3.org/2000/svg" xml:space="preserve" width="80px" height="90px" version="1.0" style="shape-rendering:geometricPrecision; text-rendering:geometricPrecision; image-rendering:optimizeQuality; fill-rule:evenodd; clip-rule:evenodd"
viewBox="0 0 80 90"
 xmlns:xlink="http://www.w3.org/1999/xlink">
 <defs>
  <style type="text/css">
   <![CDATA[
    .fil0 {fill:#8ACF17}
    .fil2 {fill:white}
    .fil1 {fill:white;fill-rule:nonzero}
   ]]>
  </style>
 </defs>
 <g id="Warstwa_x0020_1">
  <metadata id="CorelCorpID_0Corel-Layer"/>
  <g id="_204617496">
   <path class="fil0" d="M40 0l20 11 20 12 0 22 0 23 -20 11 -20 11 -20 -11 -20 -11 0 -23 0 -22 20 -12 20 -11z"/>
   <path class="fil1" d="M35 32l1 0 0 1c0,0 0,1 -1,1 -2,0 -2,-1 -2,-3 0,-3 1,-3 2,-3 1,0 3,0 3,0l0 -2c0,0 -2,0 -3,0 -3,0 -4,1 -4,5 0,2 1,4 4,4 1,0 3,0 3,0l0 -5 -3 0 0 2zm4 3l2 0 0 -9 -2 0 0 9zm3 -7l3 0 0 7 1 0 0 -7 3 0 0 -2 -7 0 0 2z"/>
   <path class="fil2" d="M50 52c0,0 -1,-1 -1,-1 -2,-2 -4,-4 -6,-6 -3,-3 -3,-3 -5,-1 -1,0 -2,1 -2,1l3 3c1,0 1,0 2,0 0,1 0,1 0,1 1,1 0,1 0,1 0,1 3,2 3,3 1,0 2,0 2,1 1,1 -1,3 -2,2 -1,0 -1,-1 -1,-2 -1,-1 -2,-2 -3,-3l0 7c1,0 2,1 1,2 0,1 -1,1 -1,1 -2,0 -3,-2 -1,-3l0 -7c-1,0 -1,-1 -1,-2 0,0 -1,-1 -1,-1 0,0 0,0 0,0 -1,-1 -1,-1 -2,-2 0,0 -1,1 -1,2 -1,0 -1,1 -2,1 -1,1 -2,2 -3,3 -1,1 -2,2 -1,4 1,1 2,2 3,3 2,2 4,4 6,5 1,1 2,3 4,2l10 -10c1,-2 0,-2 -1,-4z"/>
  </g>
 </g>
</svg>
