<?xml version="1.0" encoding="UTF-8"?>
<!DOCTYPE svg PUBLIC "-//W3C//DTD SVG 1.0//EN" "http://www.w3.org/TR/2001/REC-SVG-20010904/DTD/svg10.dtd">
<!-- Creator: CorelDRAW X7 -->
<svg xmlns="http://www.w3.org/2000/svg" xml:space="preserve" width="80px" height="90px" version="1.0" style="shape-rendering:geometricPrecision; text-rendering:geometricPrecision; image-rendering:optimizeQuality; fill-rule:evenodd; clip-rule:evenodd"
viewBox="0 0 80 90"
 xmlns:xlink="http://www.w3.org/1999/xlink">
 <defs>
  <style type="text/css">
   <![CDATA[
    .fil0 {fill:#8ACF17}
    .fil3 {fill:#E6E6E6}
    .fil2 {fill:white}
    .fil1 {fill:white;fill-rule:nonzero}
   ]]>
  </style>
 </defs>
 <g id="Warstwa_x0020_1">
  <metadata id="CorelCorpID_0Corel-Layer"/>
  <g id="_292096104">
   <path class="fil0" d="M40 0l20 11 20 12 0 22 0 23 -20 11 -20 11 -20 -11 -20 -11 0 -23 0 -22 20 -12 20 -11z"/>
   <path class="fil1" d="M26 35l2 0 0 -9 -2 0 0 4 -3 0 0 -4 -2 0 0 9 2 0 0 -4 3 0 0 4zm3 -7l2 0 0 7 2 0 0 -7 2 0 0 -2 -6 0 0 2zm7 7l2 0 0 -7 0 0 2 6 2 0 1 -6 1 0 0 7 1 0 0 -9 -3 0 -1 7 -2 -7 -3 0 0 9zm16 0l0 -2 -3 0 0 -7 -2 0 0 9 5 0zm1 -9l0 5 1 0c0,0 1,0 2,0 1,0 1,0 1,1 0,1 0,1 -1,1 -1,0 -3,0 -3,0l0 2c0,0 2,0 3,0 2,0 3,-1 3,-3 0,-2 -1,-3 -3,-3 -1,0 -1,1 -1,1l0 -2 4 0 0 -2 -6 0z"/>
   <g>
    <path class="fil2" d="M39 64l-5 -1 -1 -5 3 0c0,1 0,2 0,3 1,0 3,0 3,0 0,0 0,0 0,0l0 -4 3 0 0 1 1 -1 -10 0 0 -8 6 0 0 -2 9 0 -2 18 -7 2 0 -3c0,0 0,0 0,0zm0 5l0 0 9 -3 2 -21 -21 0 2 21c0,1 1,1 2,1 0,0 6,2 6,2z"/>
    <path class="fil3" d="M39 49l7 0c0,0 0,0 0,0 0,1 0,0 0,1 0,0 0,1 0,2l0 0 -7 0 0 2c2,1 4,0 6,1 1,0 0,-1 0,0 0,0 0,0 0,0 0,0 0,0 0,0l0 8c0,0 0,0 0,0l-5 1c-1,0 0,0 -1,0 0,0 0,0 0,0 0,0 0,0 0,0l0 3 7 -2 2 -18 -9 0 0 2z"/>
    <path class="fil0" d="M43 57c-1,0 0,0 -1,0 0,0 0,0 0,0l-3 0 0 -2 6 0c0,-1 0,-1 0,0l-4 0c-2,0 -4,0 -5,0l0 -3 10 0 0 0c-1,0 -6,0 -7,0l0 -3 7 0 0 1c0,-1 0,0 0,-1 0,0 0,0 0,0l-7 0 -6 0 0 8 10 0z"/>
    <path class="fil0" d="M43 57l-1 1c0,0 0,2 0,3 0,0 -2,0 -3,0 0,1 0,3 0,3l1 0 5 -1c0,0 0,0 0,0l0 -8 0 0 -6 0 0 2 3 0c0,0 0,0 0,0 1,0 0,0 1,0z"/>
    <path class="fil0" d="M39 64c0,0 0,0 0,0 1,0 0,0 1,0l-1 0c0,0 0,-2 0,-3 0,0 0,0 0,0 0,0 -2,0 -3,0 0,-1 0,-2 0,-3l-3 0 1 5 5 1z"/>
    <path class="fil0" d="M46 52c0,-1 0,-2 0,-2l0 -1 -7 0 0 3c1,0 6,0 7,0z"/>
    <path class="fil3" d="M39 61c0,0 0,0 0,0 1,0 3,0 3,0 0,-1 0,-3 0,-3l0 -1 -3 0 0 4c0,0 0,0 0,0z"/>
    <path class="fil2" d="M45 55l0 0c0,0 0,0 0,0 0,0 0,0 0,0 0,-1 1,0 0,0 -2,-1 -4,0 -6,-1l0 -2 7 0 -10 0 0 3c1,0 3,0 5,0l4 0c0,-1 0,-1 0,0z"/>
   </g>
  </g>
 </g>
</svg>
