<?xml version="1.0" encoding="UTF-8"?>
<!DOCTYPE svg PUBLIC "-//W3C//DTD SVG 1.0//EN" "http://www.w3.org/TR/2001/REC-SVG-20010904/DTD/svg10.dtd">
<!-- Creator: CorelDRAW X7 -->
<svg xmlns="http://www.w3.org/2000/svg" xml:space="preserve" width="80px" height="90px" version="1.0" style="shape-rendering:geometricPrecision; text-rendering:geometricPrecision; image-rendering:optimizeQuality; fill-rule:evenodd; clip-rule:evenodd"
viewBox="0 0 80 90"
 xmlns:xlink="http://www.w3.org/1999/xlink">
 <defs>
  <style type="text/css">
   <![CDATA[
    .fil0 {fill:#8ACF17}
    .fil2 {fill:white}
    .fil1 {fill:white;fill-rule:nonzero}
   ]]>
  </style>
 </defs>
 <g id="Warstwa_x0020_1">
  <metadata id="CorelCorpID_0Corel-Layer"/>
  <g id="_295469264">
   <path class="fil0" d="M40 0l20 11 20 12 0 22 0 23 -20 11 -20 11 -20 -11 -20 -11 0 -23 0 -22 20 -12 20 -11z"/>
   <path class="fil1" d="M30 28l-2 0 0 7c0,1 0,1 -1,1l0 2c2,0 3,-1 3,-3l0 -7zm1 9l2 0 0 -2 3 0 0 2 2 0 -2 -9 -3 0 -2 9zm3 -7l1 0 1 4 -3 0 1 -4zm10 -2l-2 7 0 0 -2 -7 -2 0 2 9 4 0 2 -9 -2 0zm2 9l1 0 1 -2 3 0 0 2 2 0 -2 -9 -3 0 -2 9zm3 -7l1 0 0 4 -2 0 1 -4z"/>
   <g>
    <path class="fil2" d="M42 41c0,1 1,1 0,2 0,1 -1,2 -1,2l-2 1c0,0 0,0 0,0 -1,1 -3,3 -3,4 -1,1 1,3 2,4l0 1c1,0 1,0 2,1 0,-1 -1,-1 -1,-1 0,-1 -1,-2 -1,-3 -1,-1 -1,-2 0,-2l3 -3c0,-1 0,-1 0,-1 1,0 1,0 1,-1 1,-1 2,-3 1,-4 0,0 0,-1 -1,-1 0,1 0,1 0,1z"/>
    <path class="fil2" d="M29 66c0,0 0,0 0,0 0,0 1,0 1,0 0,0 2,1 3,1l6 0 7 -1c1,0 3,0 3,-1 0,-1 -1,-1 -1,-1 0,0 0,0 0,1 0,1 -5,1 -6,1 0,0 -1,0 -1,0 -3,0 -6,0 -9,0 0,-1 0,-1 -1,-1 0,0 0,0 1,0 1,-1 2,-1 2,-1 -1,0 -3,0 -3,0 -1,1 -2,1 -2,2z"/>
    <path class="fil2" d="M40 51c0,1 0,2 1,2 0,1 1,2 0,3 0,0 0,0 0,1 0,0 0,-1 0,-1 1,0 1,0 1,-1 1,0 1,-1 1,-2 0,0 0,0 -1,-1 0,0 0,0 0,0 -1,-1 -1,-2 0,-3 1,-1 4,-3 4,-3 -1,0 -3,1 -4,2 -1,0 -2,1 -2,3z"/>
    <path class="fil2" d="M31 57c1,1 1,1 1,1 3,0 6,0 8,0 1,0 4,0 5,-1 0,0 0,0 1,0l0 0c-2,0 -2,0 -3,0 -1,0 -1,0 -2,0 -2,0 -4,1 -7,0 0,0 0,0 0,0 0,0 0,0 0,0 0,-1 0,-1 0,-1l2 0c0,0 -2,0 -2,0 -1,0 -1,0 -2,0 0,1 0,1 -1,1z"/>
    <path class="fil2" d="M35 63c0,1 4,2 7,1 0,0 1,0 1,0 0,0 1,-1 1,-1 0,0 0,0 -1,0 0,0 0,-1 0,-1 -1,0 -2,1 -4,1 -1,0 -1,0 -2,0 0,0 -1,0 -1,0 0,-1 0,-1 0,-1 -1,0 -1,0 -1,1z"/>
    <path class="fil2" d="M38 61c3,0 3,0 5,0l1 -1c1,0 0,0 1,0 -1,0 -1,0 -1,0 -1,0 -1,0 -1,0 -3,0 -2,0 -4,0l-3 0c-1,0 0,0 -1,0 0,-1 0,-1 0,-1 0,0 -2,1 -1,1 0,1 1,1 2,1 0,0 1,0 2,0z"/>
    <path class="fil2" d="M39 68l-2 0c0,0 -1,0 -1,0 -1,0 -3,-1 -3,-1 0,0 0,0 0,1 0,0 1,0 1,0l3 0c2,0 5,0 7,0 2,0 1,0 3,0 0,0 1,-1 1,-1 1,0 0,0 1,0 0,0 1,-1 1,-1 0,-1 0,0 -1,0 -1,1 -2,1 -3,1 0,0 -1,0 -1,0l-6 1z"/>
    <path class="fil2" d="M46 56c1,0 1,0 2,0 1,1 1,2 -1,4l-1 1c0,0 0,0 -1,0 1,0 1,0 1,0 1,-1 1,0 2,-1 3,-2 2,-5 0,-5 -1,0 -2,0 -2,1z"/>
   </g>
  </g>
 </g>
</svg>
