<?xml version="1.0" encoding="UTF-8"?>
<!DOCTYPE svg PUBLIC "-//W3C//DTD SVG 1.0//EN" "http://www.w3.org/TR/2001/REC-SVG-20010904/DTD/svg10.dtd">
<!-- Creator: CorelDRAW X7 -->
<svg xmlns="http://www.w3.org/2000/svg" xml:space="preserve" width="80px" height="90px" version="1.0" style="shape-rendering:geometricPrecision; text-rendering:geometricPrecision; image-rendering:optimizeQuality; fill-rule:evenodd; clip-rule:evenodd"
viewBox="0 0 80 90"
 xmlns:xlink="http://www.w3.org/1999/xlink">
 <defs>
  <style type="text/css">
   <![CDATA[
    .fil0 {fill:#8ACF17}
    .fil3 {fill:#E6E6E6}
    .fil2 {fill:white}
    .fil1 {fill:white;fill-rule:nonzero}
   ]]>
  </style>
 </defs>
 <g id="Warstwa_x0020_1">
  <metadata id="CorelCorpID_0Corel-Layer"/>
  <g id="_295030632">
   <path class="fil0" d="M40 0l20 11 20 12 0 22 0 23 -20 11 -20 11 -20 -11 -20 -11 0 -23 0 -22 20 -12 20 -11z"/>
   <path class="fil1" d="M10 26l-2 0 0 7c0,1 0,1 -1,1l0 1c2,0 3,0 3,-2l0 -7zm1 9l2 0 0 -2 3 0 1 2 1 0 -1 -9 -4 0 -2 9zm4 -8l0 0 1 4 -2 0 1 -4zm9 -1l-2 7 0 0 -2 -7 -1 0 2 9 3 0 2 -9 -2 0zm2 9l2 0 0 -2 3 0 0 2 2 0 -2 -9 -3 0 -2 9zm3 -8l1 0 1 4 -3 0 1 -4zm10 -1c0,0 -1,0 -2,0 -2,0 -3,1 -3,2 0,2 0,2 2,3 2,0 2,1 2,1 0,1 0,1 -1,1 -1,0 -3,0 -3,0l0 1c0,0 2,1 3,1 1,0 3,-1 3,-3 0,-1 -1,-2 -3,-3 -1,0 -2,0 -2,-1 0,0 1,-1 2,-1 1,0 2,0 2,0l0 -1zm8 7c-1,0 -2,0 -3,0 -1,0 -1,0 -1,-3 0,-2 0,-3 1,-3 1,0 2,0 3,1l0 -2c-1,0 -2,0 -3,0 -3,0 -3,1 -3,4 0,3 0,5 3,5 1,0 2,0 3,-1l0 -1zm4 -1l1 3 2 0 -1 -4c1,0 1,-1 1,-2 0,-2 -1,-3 -3,-3l-3 0 0 9 2 0 0 -3 1 0zm2 -3c0,1 -1,1 -2,1l-1 0 0 -3 1 0c1,0 2,1 2,2zm3 6l2 0 0 -9 -2 0 0 9zm7 -3c2,0 3,-1 3,-3 0,-2 -1,-3 -3,-3l-4 0 0 9 2 0 0 -3 2 0zm-2 -1l0 -4 2 0c1,0 1,1 1,2 0,1 0,2 -1,2l-2 0zm5 -4l2 0 0 8 2 0 0 -8 3 0 0 -1 -7 0 0 1z"/>
   <path class="fil2" d="M37 49l2 0 0 14 -6 -1 0 -3 4 1 0 -11zm3 -2l9 0 -2 18c-1,0 -6,2 -7,2l0 -20zm-9 19l9 3 9 -3c0,0 0,-2 0,-2 0,-3 0,-7 1,-8l1 -11 -21 0c-1,0 -1,0 0,1l0 4c0,3 1,8 1,11l0 5z"/>
   <path class="fil3" d="M41 49l7 0 -1 3 -4 0 0 4 4 -1 0 7c-1,0 -5,1 -6,1l0 -2 4 -1 0 -2 -4 1 0 -10zm-1 18c1,0 6,-2 7,-2l2 -18 -9 0 0 20z"/>
   <path class="fil0" d="M41 59l4 -1 0 2 -4 1 0 2c1,0 5,-1 6,-1l0 -7 -4 1 0 -4 4 0 1 -3 -7 0 0 10z"/>
   <path class="fil0" d="M37 60l-4 -1 0 3 6 1 0 -14 -2 0 0 11z"/>
  </g>
 </g>
</svg>
