<?xml version="1.0" encoding="UTF-8"?>
<!DOCTYPE svg PUBLIC "-//W3C//DTD SVG 1.0//EN" "http://www.w3.org/TR/2001/REC-SVG-20010904/DTD/svg10.dtd">
<!-- Creator: CorelDRAW X7 -->
<svg xmlns="http://www.w3.org/2000/svg" xml:space="preserve" width="80px" height="90px" version="1.0" style="shape-rendering:geometricPrecision; text-rendering:geometricPrecision; image-rendering:optimizeQuality; fill-rule:evenodd; clip-rule:evenodd"
viewBox="0 0 80 90"
 xmlns:xlink="http://www.w3.org/1999/xlink">
 <defs>
  <style type="text/css">
   <![CDATA[
    .fil0 {fill:#8ACF17}
    .fil2 {fill:#FEFEFE}
    .fil1 {fill:white;fill-rule:nonzero}
   ]]>
  </style>
 </defs>
 <g id="Warstwa_x0020_1">
  <metadata id="CorelCorpID_0Corel-Layer"/>
  <g id="_296681752">
   <path class="fil0" d="M40 0l20 11 20 12 0 22 0 23 -20 11 -20 11 -20 -11 -20 -11 0 -23 0 -22 20 -12 20 -11z"/>
   <path class="fil1" d="M18 36l1 0 0 -7 0 0 3 7 3 0 0 -8 -2 0 0 7 0 0 -2 -7 -3 0 0 8zm12 -1c-2,0 -2,-1 -2,-3 0,-2 0,-3 2,-3 1,0 1,1 1,3 0,2 0,3 -1,3zm0 1c2,0 3,-1 3,-4 0,-3 -1,-4 -3,-4 -3,0 -4,1 -4,4 0,3 1,4 4,4zm8 0c3,0 3,-1 3,-4 0,-3 0,-4 -3,-4l-3 0 0 8 3 0zm1 -4c0,2 0,3 -1,3l-2 0 0 -6 2 0c1,0 1,1 1,3zm4 4l5 0 0 -1 -3 0 0 -2 3 0 0 -2 -3 0 0 -2 3 0 0 -1 -5 0 0 8zm7 0l1 0 0 -2 -1 0 0 2zm5 -8l-2 0 0 7c0,0 0,1 -1,1l0 1c2,0 3,0 3,-2l0 -7zm7 0c0,0 -1,0 -3,0 -1,0 -3,0 -3,2 0,1 1,2 3,3 1,0 2,0 2,1 0,0 -1,1 -2,1 -1,0 -2,0 -2,0l0 1c0,0 1,0 2,0 2,0 3,0 3,-2 0,-2 0,-2 -2,-3 -1,0 -2,-1 -2,-1 0,-1 1,-1 2,-1 0,0 2,0 2,0l0 -1z"/>
   <g>
    <path class="fil2" d="M45 57c2,-1 1,-2 3,0l0 2c0,0 -1,0 -1,1 0,0 -1,-1 -2,-1l0 -2zm-3 -2c0,1 0,2 0,3 0,2 0,2 1,3 0,0 4,2 4,2 0,0 3,-2 4,-2 1,-1 1,-1 1,-2 0,-2 0,-3 0,-4 0,-2 0,-4 0,-6 0,-2 0,-1 -1,-2 -1,0 -2,-1 -2,-1 -1,1 0,6 -1,7 0,0 -1,-1 -1,-1l-3 2c-1,1 -2,1 -2,1z"/>
    <path class="fil2" d="M31 60c0,1 4,3 4,3 1,0 2,-1 3,-1 0,-1 2,-1 2,-2l0 -5c0,0 -4,-3 -5,-3 0,0 -4,3 -4,3l0 5z"/>
    <path class="fil2" d="M20 62c0,0 2,-1 2,-1 1,-1 0,-3 0,-4 1,0 2,-1 2,-1 0,0 1,0 1,1 1,0 0,2 1,3 0,0 2,2 3,2 0,-1 0,-6 0,-7 -1,0 -5,-3 -5,-3 0,0 -2,1 -2,2 -1,0 -1,0 -2,0 -1,1 -1,0 -1,6 0,2 0,2 1,2z"/>
    <path class="fil2" d="M54 55c0,2 0,3 0,5 0,1 0,1 2,2 3,1 2,1 4,0 0,0 1,0 1,-1 0,0 -4,-2 -4,-2l0 -2c0,0 1,-1 1,-1 1,0 2,1 2,1 0,2 -1,2 1,1 2,-1 2,-1 2,-2 0,-1 0,-1 -2,-2 -3,-2 -2,-2 -6,0 -1,1 -1,1 -1,1z"/>
   </g>
  </g>
 </g>
</svg>
