<?xml version="1.0" encoding="UTF-8"?>
<!DOCTYPE svg PUBLIC "-//W3C//DTD SVG 1.0//EN" "http://www.w3.org/TR/2001/REC-SVG-20010904/DTD/svg10.dtd">
<!-- Creator: CorelDRAW X7 -->
<svg xmlns="http://www.w3.org/2000/svg" xml:space="preserve" width="80px" height="90px" version="1.0" style="shape-rendering:geometricPrecision; text-rendering:geometricPrecision; image-rendering:optimizeQuality; fill-rule:evenodd; clip-rule:evenodd"
viewBox="0 0 80 90"
 xmlns:xlink="http://www.w3.org/1999/xlink">
 <defs>
  <style type="text/css">
   <![CDATA[
    .str0 {stroke:#8ACF17;stroke-width:1.18113}
    .fil0 {fill:none}
    .fil2 {fill:#8ACF17}
    .fil1 {fill:#8ACF17;fill-rule:nonzero}
   ]]>
  </style>
 </defs>
 <g id="Warstwa_x0020_1">
  <metadata id="CorelCorpID_0Corel-Layer"/>
  <g id="_202799416">
   <path class="fil0 str0" d="M40 0l20 11 20 12 0 22 0 23 -20 11 -20 11 -20 -11 -20 -11 0 -23 0 -22 20 -12 20 -11z"/>
   <path class="fil1" d="M34 36c2,0 3,-1 3,-3 0,-2 -1,-3 -3,-3l-3 0 0 8 2 0 0 -2 1 0zm-1 -2l0 -3 1 0c1,0 1,1 1,2 0,1 0,1 -1,1l-1 0zm10 4l2 0 0 -8 -2 0 0 3 -3 0 0 -3 -2 0 0 8 2 0 0 -3 3 0 0 3zm7 -2c2,0 3,-1 3,-3 0,-2 -1,-3 -3,-3l-3 0 0 8 2 0 0 -2 1 0zm-1 -2l0 -3 1 0c1,0 1,1 1,2 0,1 0,1 -1,1l-1 0z"/>
   <path class="fil2" d="M42 49c9,0 17,4 17,9 0,5 -8,9 -17,9 -10,0 -18,-4 -18,-9 0,-5 8,-9 18,-9zm6 10c0,-1 1,-3 1,-4 0,0 0,0 1,0 0,0 1,0 1,0 1,1 1,3 0,3 -1,1 -2,1 -3,1zm6 -3l0 0c0,1 0,1 0,2 -2,3 -4,2 -6,2 0,1 -1,2 -1,3l-2 0 2 -9 4 0c2,0 3,1 3,2zm-21 3c0,-1 0,-4 0,-4l2 0c2,0 1,3 1,3 -1,1 -2,1 -3,1zm-3 4l2 0c0,-1 0,-1 0,-2 0,0 0,-1 1,-1 1,0 2,0 3,0 3,-1 4,-6 0,-6l-4 0c0,0 -2,8 -2,9zm8 -3c3,0 2,0 2,-1l1 -4c3,0 3,0 2,3 0,1 0,2 0,2l2 0c0,0 1,-4 1,-5 0,-2 -3,-1 -4,-1 0,-1 0,-2 0,-3l-2 0 -1 5c0,1 0,1 0,2 -1,1 -1,1 -1,1 0,1 0,1 0,1z"/>
  </g>
 </g>
</svg>
