<?xml version="1.0" encoding="UTF-8"?>
<!DOCTYPE svg PUBLIC "-//W3C//DTD SVG 1.0//EN" "http://www.w3.org/TR/2001/REC-SVG-20010904/DTD/svg10.dtd">
<!-- Creator: CorelDRAW X7 -->
<svg xmlns="http://www.w3.org/2000/svg" xml:space="preserve" width="80px" height="90px" version="1.0" style="shape-rendering:geometricPrecision; text-rendering:geometricPrecision; image-rendering:optimizeQuality; fill-rule:evenodd; clip-rule:evenodd"
viewBox="0 0 80 90"
 xmlns:xlink="http://www.w3.org/1999/xlink">
 <defs>
  <style type="text/css">
   <![CDATA[
    .fil0 {fill:#8ACF17}
    .fil2 {fill:white}
    .fil1 {fill:white;fill-rule:nonzero}
   ]]>
  </style>
 </defs>
 <g id="Warstwa_x0020_1">
  <metadata id="CorelCorpID_0Corel-Layer"/>
  <g id="_292100496">
   <path class="fil0" d="M40 0l20 11 20 12 0 22 0 23 -20 11 -20 11 -20 -11 -20 -11 0 -23 0 -22 20 -12 20 -11z"/>
   <path class="fil1" d="M21 36c2,0 3,-1 3,-3 0,-2 -1,-3 -3,-3l-3 0 0 8 1 0 0 -2 2 0zm-2 -2l0 -3 2 0c1,0 1,1 1,2 0,1 0,1 -1,1l-2 0zm9 1l3 -5 -2 0 -2 3 -1 -3 -2 0 3 5 0 3 1 0 0 -3zm3 -4l2 0 0 7 2 0 0 -7 2 0 0 -1 -6 0 0 1zm13 7l1 0 0 -8 -1 0 0 3 -4 0 0 -3 -1 0 0 8 1 0 0 -3 4 0 0 3zm6 -1c-1,0 -1,-1 -1,-3 0,-2 0,-3 1,-3 2,0 2,1 2,3 0,2 0,3 -2,3zm0 2c3,0 4,-2 4,-5 0,-3 -1,-4 -4,-4 -2,0 -3,1 -3,4 0,3 1,5 3,5zm5 -1l2 0 0 -7 0 0 3 7 2 0 0 -8 -1 0 0 7 0 0 -3 -7 -3 0 0 8z"/>
   <g>
    <path class="fil2" d="M42 67c0,-2 2,-2 2,0 0,0 -1,1 -1,0 -1,0 -1,0 -1,0zm4 -13c0,2 -1,4 -3,4 -2,0 -6,-1 -7,0 -1,1 -2,2 -2,3l0 4c0,2 1,3 2,4 3,1 10,0 10,-3l0 -2 -6 0 0 -1 8 0c2,0 2,0 3,-2 1,-2 1,-5 0,-8 -1,-2 -3,-1 -5,-1l0 2z"/>
    <path class="fil2" d="M36 48c0,-1 2,-1 2,0 0,2 -2,2 -2,0zm-2 1l0 2 6 0 0 1 -8 0c-1,0 -2,0 -3,1 0,1 0,1 0,2 -1,2 -1,5 0,7 1,1 2,1 4,1 1,0 -1,-4 3,-6 2,-1 7,1 9,-1 1,-1 1,-1 1,-2l0 -5c0,-1 -1,-2 -2,-3 -2,-1 -7,-1 -8,0 -2,1 -2,2 -2,3z"/>
   </g>
  </g>
 </g>
</svg>
