<?xml version="1.0" encoding="UTF-8"?>
<!DOCTYPE svg PUBLIC "-//W3C//DTD SVG 1.0//EN" "http://www.w3.org/TR/2001/REC-SVG-20010904/DTD/svg10.dtd">
<!-- Creator: CorelDRAW X7 -->
<svg xmlns="http://www.w3.org/2000/svg" xml:space="preserve" width="80px" height="90px" version="1.0" style="shape-rendering:geometricPrecision; text-rendering:geometricPrecision; image-rendering:optimizeQuality; fill-rule:evenodd; clip-rule:evenodd"
viewBox="0 0 80 90"
 xmlns:xlink="http://www.w3.org/1999/xlink">
 <defs>
  <style type="text/css">
   <![CDATA[
    .str0 {stroke:#8ACF17;stroke-width:1.18113}
    .fil0 {fill:none}
    .fil2 {fill:#8ACF17}
    .fil1 {fill:#8ACF17;fill-rule:nonzero}
   ]]>
  </style>
 </defs>
 <g id="Warstwa_x0020_1">
  <metadata id="CorelCorpID_0Corel-Layer"/>
  <g id="_292093440">
   <path class="fil0 str0" d="M40 0l20 11 20 12 0 22 0 23 -20 11 -20 11 -20 -11 -20 -11 0 -23 0 -22 20 -12 20 -11z"/>
   <path class="fil1" d="M26 33l1 3 2 0 -1 -3c0,-1 1,-1 1,-3 0,-1 -1,-2 -3,-2l-3 0 0 8 1 0 0 -3 2 0zm1 -2c0,0 0,1 -1,1l-2 0 0 -3 2 0c1,0 1,1 1,2zm3 5l6 0 0 -1 -4 0 0 -2 3 0 0 -2 -3 0 0 -2 4 0 0 -1 -6 0 0 8zm7 0l1 0 1 -1 3 0 0 1 2 0 -2 -8 -3 0 -2 8zm3 -7l1 0 1 4 -3 0 1 -4zm10 6c0,0 -1,0 -2,0 -1,0 -2,-1 -2,-3 0,-2 1,-3 2,-3 1,0 2,0 2,0l0 -1c0,0 -1,0 -2,0 -3,0 -3,1 -3,4 0,3 0,4 3,4 1,0 2,0 2,0l0 -1zm1 -6l2 0 0 7 2 0 0 -7 2 0 0 -1 -6 0 0 1z"/>
   <g>
    <path class="fil2" d="M33 60c4,1 3,0 5,2 0,1 1,1 1,2 -1,0 -3,2 -5,2 -1,0 -1,-4 -1,-6zm14 0c0,2 0,5 -1,6 -2,0 -4,-2 -5,-2 0,-1 1,-1 1,-2 0,0 0,0 0,0 1,-2 1,-1 5,-2zm-8 1l2 0c0,1 0,1 -1,2l-1 -2zm5 -2c0,0 1,-2 2,-2 0,0 0,1 0,2l-2 0zm-10 -2l2 2 -2 0 0 -2zm13 2c0,-1 -1,-3 -1,-4 0,0 1,-2 1,-3 2,0 5,2 5,3 0,2 -3,3 -5,4zm-14 0c-2,-1 -5,-2 -5,-4 0,-1 3,-3 5,-3 0,1 1,3 1,3 0,1 -1,3 -1,4zm4 1c-1,-3 -2,-4 -1,-6 2,-3 1,-3 4,-3 2,0 2,0 3,1 2,4 2,3 0,6 0,1 0,1 0,2l-6 0zm9 -6c-1,-1 -2,-2 -2,-3l2 1 0 2zm-10 -3c0,1 -1,2 -2,3l0 -2 2 -1zm3 -1c0,-1 1,-2 1,-2 0,0 1,1 1,2l-2 0zm2 -3c0,0 8,-7 6,3 -1,0 -2,0 -2,0 -3,0 -2,0 -3,-2 -1,0 -1,0 -1,-1zm-8 3c0,-1 -1,-5 1,-5 2,-1 4,1 5,2 0,1 -1,1 -1,1 -1,2 0,2 -5,2zm15 1c0,-2 0,-3 0,-5 -1,-6 -7,-1 -8,0 -1,-1 -4,-3 -6,-2 -3,0 -2,4 -2,7 -2,0 -5,2 -5,4 0,2 3,4 5,5 0,1 0,3 0,4 1,7 8,0 8,0 1,1 4,4 7,3 2,-1 1,-5 1,-7 2,-1 5,-3 5,-5 0,-2 -3,-4 -5,-4z"/>
    <path class="fil2" d="M42 56c1,-3 -4,-4 -4,-1 -1,3 4,4 4,1z"/>
   </g>
  </g>
 </g>
</svg>
