<?xml version="1.0" encoding="UTF-8"?>
<!DOCTYPE svg PUBLIC "-//W3C//DTD SVG 1.0//EN" "http://www.w3.org/TR/2001/REC-SVG-20010904/DTD/svg10.dtd">
<!-- Creator: CorelDRAW X7 -->
<svg xmlns="http://www.w3.org/2000/svg" xml:space="preserve" width="80px" height="90px" version="1.0" style="shape-rendering:geometricPrecision; text-rendering:geometricPrecision; image-rendering:optimizeQuality; fill-rule:evenodd; clip-rule:evenodd"
viewBox="0 0 80 90"
 xmlns:xlink="http://www.w3.org/1999/xlink">
 <defs>
  <style type="text/css">
   <![CDATA[
    .str0 {stroke:#8ACF17;stroke-width:1.18113}
    .fil0 {fill:none}
    .fil2 {fill:#8ACF17}
    .fil1 {fill:#8ACF17;fill-rule:nonzero}
   ]]>
  </style>
 </defs>
 <g id="Warstwa_x0020_1">
  <metadata id="CorelCorpID_0Corel-Layer"/>
  <g id="_297375288">
   <path class="fil0 str0" d="M40 0l20 11 20 12 0 22 0 23 -20 11 -20 11 -20 -11 -20 -11 0 -23 0 -22 20 -12 20 -11z"/>
   <path class="fil1" d="M32 28c0,0 -2,0 -3,0 -2,0 -3,1 -3,2 0,2 1,2 3,3 1,0 1,1 1,1 0,1 0,1 -1,1 -1,0 -3,0 -3,0l0 1c0,0 2,1 3,1 2,0 3,-1 3,-3 0,-1 -1,-2 -2,-3 -2,0 -2,0 -2,-1 0,0 0,-1 1,-1 1,0 3,0 3,0l0 -1zm1 9l1 0 1 -2 3 0 0 2 2 0 -2 -9 -4 0 -1 9zm3 -8l0 0 1 4 -2 0 1 -4zm10 -1c0,0 -2,0 -3,0 -1,0 -3,1 -3,2 0,2 1,2 3,3 1,0 2,1 2,1 0,1 -1,1 -2,1 -1,0 -2,0 -2,0l-1 1c0,0 2,1 3,1 2,0 3,-1 3,-3 0,-1 0,-2 -2,-3 -2,0 -2,0 -2,-1 0,0 1,-1 1,-1 1,0 3,0 3,0l0 -1zm7 0c0,0 -2,0 -3,0 -2,0 -3,1 -3,2 0,2 1,2 3,3 1,0 1,1 1,1 0,1 0,1 -1,1 -1,0 -2,0 -2,0l-1 1c0,0 2,1 3,1 2,0 3,-1 3,-3 0,-1 0,-2 -2,-3 -2,0 -2,0 -2,-1 0,0 0,-1 1,-1 1,0 3,0 3,0l0 -1z"/>
   <path class="fil2" d="M35 63c1,4 -3,5 -3,4 -2,-1 2,-4 3,-4zm15 1c0,-1 0,-2 1,-2 0,1 0,2 -1,2zm-11 1c-1,-2 1,-6 2,-6 0,2 -1,5 -2,6zm17 -4l0 -1c-2,0 -3,0 -4,0 0,0 -1,-1 -1,-2 0,0 0,0 0,-1 0,0 0,0 0,0 1,-1 -1,-1 -1,-1 -1,2 -1,3 -2,5 -2,-2 1,-5 -2,-4 -1,2 -3,7 -4,7 0,-1 1,-3 1,-4 0,0 0,0 0,0 -1,0 -1,0 -1,0 0,-1 0,-1 0,-2 -2,0 -3,1 -3,2 -1,0 -3,1 -4,2 -2,-2 -6,-4 -4,-8 3,-3 11,-7 14,-5 3,2 -2,7 -7,7 -2,0 -2,-1 -3,-1 1,3 9,2 11,-1 4,-6 -1,-8 -6,-7 -5,1 -15,6 -10,11 0,1 3,4 4,4 0,0 -1,1 -2,1 -6,4 -1,8 2,5 2,-1 3,-3 2,-6l2 -1c-1,5 1,7 2,5 0,-1 1,-1 1,-2 0,1 0,1 0,2 1,1 3,-2 3,-3 1,-1 1,-2 2,-3 0,0 0,1 0,1 1,1 1,1 -1,3 0,0 -1,1 -1,1 1,1 4,0 4,-2 0,-1 0,-1 1,-2 0,-1 0,-2 1,-2l1 2c-1,1 -3,2 -2,3 1,1 2,0 3,0 1,-1 0,-1 0,-3 1,0 3,0 4,0z"/>
  </g>
 </g>
</svg>
